<svg width="181" height="181" viewBox="0 0 181 181" fill="none" xmlns="http://www.w3.org/2000/svg">
<g opacity="0.3" clip-path="url(#clip0_6033_36789)">
<path d="M180.339 90.841C180.339 140.64 139.968 181.011 90.1687 181.011C40.3747 181.011 -0.00146484 140.64 -0.00146484 90.841C-0.00146484 41.0471 40.3747 0.670898 90.1687 0.670898C139.968 0.670898 180.339 41.0471 180.339 90.841Z" fill="#FFCC4D"/>
<path d="M57.6076 100.859C64.5242 100.859 70.1312 93.0093 70.1312 83.3261C70.1312 73.6428 64.5242 65.793 57.6076 65.793C50.691 65.793 45.084 73.6428 45.084 83.3261C45.084 93.0093 50.691 100.859 57.6076 100.859Z" fill="#664500"/>
<path d="M122.73 100.859C129.647 100.859 135.254 93.0093 135.254 83.3261C135.254 73.6428 129.647 65.793 122.73 65.793C115.814 65.793 110.207 73.6428 110.207 83.3261C110.207 93.0093 115.814 100.859 122.73 100.859Z" fill="#664500"/>
<path d="M117.647 140.328C117.592 140.108 111.911 118.392 90.17 118.392C68.429 118.392 62.7483 140.108 62.6932 140.328C62.4277 141.395 62.9136 142.487 63.8554 143.053C64.7971 143.614 66.0245 143.484 66.841 142.753C66.8861 142.718 71.9156 138.429 90.17 138.429C108.154 138.429 113.299 142.587 113.494 142.753C113.97 143.208 114.591 143.439 115.217 143.439C115.638 143.439 116.064 143.334 116.45 143.118C117.431 142.562 117.922 141.42 117.647 140.328Z" fill="#664500"/>
<path d="M50.0931 150.954C50.0931 164.79 38.8819 176.001 25.0458 176.001C11.2097 176.001 -0.00146484 164.79 -0.00146484 150.954C-0.00146484 137.118 20.0363 100.859 25.0458 100.859C30.0552 100.859 50.0931 137.118 50.0931 150.954Z" fill="#5DADEC"/>
<path d="M150.282 65.7879C122.459 65.7879 111.198 43.9116 110.732 42.9799C109.495 40.5052 110.497 37.4945 112.971 36.2572C115.436 35.0199 118.442 36.0168 119.684 38.4764C120.06 39.2078 128.806 55.769 150.282 55.769C153.052 55.769 155.291 58.0133 155.291 60.7785C155.291 63.5487 153.052 65.7879 150.282 65.7879ZM30.0549 65.7879C27.2896 65.7879 25.0454 63.5437 25.0454 60.7785C25.0454 58.0133 27.2896 55.769 30.0549 55.769C55.5179 55.769 60.0915 40.1395 60.2769 39.4733C61.0033 36.8283 63.7334 35.2253 66.3834 35.9216C69.0384 36.6179 70.6465 39.2929 69.9802 41.958C69.7347 42.9298 63.6382 65.7879 30.0549 65.7879Z" fill="#664500"/>
</g>
<defs>
<clipPath id="clip0_6033_36789">
<rect width="180.34" height="180.34" fill="white" transform="translate(0 0.65918)"/>
</clipPath>
</defs>
</svg>
