<svg width="181" height="181" viewBox="0 0 181 181" fill="none" xmlns="http://www.w3.org/2000/svg">
<g clip-path="url(#clip0_6033_36756)">
<path d="M180.339 90.2268C180.339 140.026 139.968 180.397 90.1692 180.397C40.3752 180.397 -0.000976562 140.026 -0.000976562 90.2268C-0.000976562 40.4328 40.3752 0.0566406 90.1692 0.0566406C139.968 0.0566406 180.339 40.4328 180.339 90.2268Z" fill="#FFCC4D"/>
<path d="M57.6076 100.243C64.5242 100.243 70.1312 92.3931 70.1312 82.7098C70.1312 73.0266 64.5242 65.1768 57.6076 65.1768C50.691 65.1768 45.084 73.0266 45.084 82.7098C45.084 92.3931 50.691 100.243 57.6076 100.243Z" fill="#664500"/>
<path d="M122.73 100.243C129.647 100.243 135.254 92.3931 135.254 82.7098C135.254 73.0266 129.647 65.1768 122.73 65.1768C115.814 65.1768 110.207 73.0266 110.207 82.7098C110.207 92.3931 115.814 100.243 122.73 100.243Z" fill="#664500"/>
<path d="M117.647 139.714C117.592 139.493 111.911 117.777 90.17 117.777C68.429 117.777 62.7483 139.493 62.6932 139.714C62.4277 140.781 62.9136 141.873 63.8554 142.439C64.7971 143 66.0245 142.87 66.841 142.138C66.8861 142.103 71.9156 137.815 90.17 137.815C108.154 137.815 113.299 141.973 113.494 142.138C113.97 142.594 114.591 142.825 115.217 142.825C115.638 142.825 116.064 142.719 116.45 142.504C117.431 141.948 117.922 140.806 117.647 139.714Z" fill="#664500"/>
<path d="M50.0931 150.338C50.0931 164.174 38.8819 175.385 25.0458 175.385C11.2097 175.385 -0.00146484 164.174 -0.00146484 150.338C-0.00146484 136.502 20.0363 100.243 25.0458 100.243C30.0552 100.243 50.0931 136.502 50.0931 150.338Z" fill="#5DADEC"/>
<path d="M150.282 65.1737C122.459 65.1737 111.198 43.2974 110.732 42.3656C109.495 39.891 110.497 36.8803 112.971 35.6429C115.436 34.4056 118.442 35.4025 119.684 37.8621C120.06 38.5935 128.806 55.1548 150.282 55.1548C153.052 55.1548 155.291 57.399 155.291 60.1642C155.291 62.9344 153.052 65.1737 150.282 65.1737ZM30.0549 65.1737C27.2896 65.1737 25.0454 62.9294 25.0454 60.1642C25.0454 57.399 27.2896 55.1548 30.0549 55.1548C55.5179 55.1548 60.0915 39.5253 60.2769 38.859C61.0033 36.214 63.7334 34.611 66.3834 35.3073C69.0384 36.0036 70.6465 38.6787 69.9802 41.3437C69.7347 42.3155 63.6382 65.1737 30.0549 65.1737Z" fill="#664500"/>
</g>
<defs>
<clipPath id="clip0_6033_36756">
<rect width="180.34" height="180.34" fill="white" transform="translate(0 0.0449219)"/>
</clipPath>
</defs>
</svg>
