<svg width="181" height="182" viewBox="0 0 181 182" fill="none" xmlns="http://www.w3.org/2000/svg">
<g opacity="0.3">
<path d="M180.796 90.841C180.796 140.64 140.425 181.011 90.6257 181.011C40.8318 181.011 0.455566 140.64 0.455566 90.841C0.455566 41.0471 40.8318 0.670898 90.6257 0.670898C140.425 0.670898 180.796 41.0471 180.796 90.841Z" fill="#FFCC4D"/>
<path d="M58.0651 90.8425C64.9817 90.8425 70.5888 82.9927 70.5888 73.3095C70.5888 63.6262 64.9817 55.7764 58.0651 55.7764C51.1485 55.7764 45.5415 63.6262 45.5415 73.3095C45.5415 82.9927 51.1485 90.8425 58.0651 90.8425Z" fill="#664500"/>
<path d="M123.188 90.8425C130.104 90.8425 135.711 82.9927 135.711 73.3095C135.711 63.6262 130.104 55.7764 123.188 55.7764C116.271 55.7764 110.664 63.6262 110.664 73.3095C110.664 82.9927 116.271 90.8425 123.188 90.8425Z" fill="#664500"/>
<path d="M43.864 140.291C44.7557 141.098 46.0882 141.148 47.045 140.437C47.2403 140.291 66.692 125.909 90.6272 125.909C114.502 125.909 134.019 140.291 134.209 140.437C135.166 141.148 136.499 141.088 137.39 140.291C138.277 139.49 138.477 138.167 137.861 137.145C137.215 136.073 121.746 110.881 90.6272 110.881C59.5085 110.881 44.0343 136.068 43.3931 137.145C42.7769 138.172 42.9723 139.49 43.864 140.291V140.291Z" fill="#664500"/>
</g>
</svg>
