<svg width="181" height="181" viewBox="0 0 181 181" fill="none" xmlns="http://www.w3.org/2000/svg">
<path d="M180.796 90.2268C180.796 140.026 140.425 180.397 90.6257 180.397C40.8318 180.397 0.455566 140.026 0.455566 90.2268C0.455566 40.4328 40.8318 0.0566406 90.6257 0.0566406C140.425 0.0566406 180.796 40.4328 180.796 90.2268Z" fill="#FFCC4D"/>
<path d="M58.0651 90.2263C64.9817 90.2263 70.5888 82.3765 70.5888 72.6932C70.5888 63.01 64.9817 55.1602 58.0651 55.1602C51.1485 55.1602 45.5415 63.01 45.5415 72.6932C45.5415 82.3765 51.1485 90.2263 58.0651 90.2263Z" fill="#664500"/>
<path d="M123.188 90.2263C130.104 90.2263 135.711 82.3765 135.711 72.6932C135.711 63.01 130.104 55.1602 123.188 55.1602C116.271 55.1602 110.664 63.01 110.664 72.6932C110.664 82.3765 116.271 90.2263 123.188 90.2263Z" fill="#664500"/>
<path d="M43.864 139.677C44.7557 140.484 46.0882 140.534 47.045 139.822C47.2403 139.677 66.692 125.295 90.6272 125.295C114.502 125.295 134.019 139.677 134.209 139.822C135.166 140.534 136.499 140.474 137.39 139.677C138.277 138.876 138.477 137.553 137.861 136.531C137.215 135.459 121.746 110.267 90.6272 110.267C59.5085 110.267 44.0343 135.454 43.3931 136.531C42.7769 137.558 42.9723 138.876 43.864 139.677V139.677Z" fill="#664500"/>
</svg>
