<svg width="182" height="182" viewBox="0 0 182 182" fill="none" xmlns="http://www.w3.org/2000/svg">
<g opacity="0.3">
<path d="M181.253 90.841C181.253 140.64 140.882 181.011 91.0827 181.011C41.2888 181.011 0.912598 140.64 0.912598 90.841C0.912598 41.0471 41.2888 0.670898 91.0827 0.670898C140.882 0.670898 181.253 41.0471 181.253 90.841Z" fill="#FFCC4D"/>
<path d="M58.5222 100.859C65.4388 100.859 71.0458 93.0093 71.0458 83.3261C71.0458 73.6428 65.4388 65.793 58.5222 65.793C51.6056 65.793 45.9985 73.6428 45.9985 83.3261C45.9985 93.0093 51.6056 100.859 58.5222 100.859Z" fill="#664500"/>
<path d="M123.645 100.859C130.562 100.859 136.169 93.0093 136.169 83.3261C136.169 73.6428 130.562 65.793 123.645 65.793C116.728 65.793 111.121 73.6428 111.121 83.3261C111.121 93.0093 116.728 100.859 123.645 100.859Z" fill="#664500"/>
<path d="M126.15 130.916H56.0175C53.2523 130.916 51.0081 128.677 51.0081 125.907C51.0081 123.137 53.2523 120.897 56.0175 120.897H126.15C128.92 120.897 131.159 123.137 131.159 125.907C131.159 128.677 128.92 130.916 126.15 130.916Z" fill="#664500"/>
</g>
</svg>
