<svg width="182" height="181" viewBox="0 0 182 181" fill="none" xmlns="http://www.w3.org/2000/svg">
<path d="M181.256 90.2268C181.256 140.026 140.885 180.397 91.0859 180.397C41.292 180.397 0.915771 140.026 0.915771 90.2268C0.915771 40.4328 41.292 0.0566406 91.0859 0.0566406C140.885 0.0566406 181.256 40.4328 181.256 90.2268Z" fill="#FFCC4D"/>
<path d="M58.5251 100.243C65.4417 100.243 71.0487 92.3931 71.0487 82.7098C71.0487 73.0266 65.4417 65.1768 58.5251 65.1768C51.6085 65.1768 46.0015 73.0266 46.0015 82.7098C46.0015 92.3931 51.6085 100.243 58.5251 100.243Z" fill="#664500"/>
<path d="M123.648 100.243C130.564 100.243 136.171 92.3931 136.171 82.7098C136.171 73.0266 130.564 65.1768 123.648 65.1768C116.731 65.1768 111.124 73.0266 111.124 82.7098C111.124 92.3931 116.731 100.243 123.648 100.243Z" fill="#664500"/>
<path d="M126.153 130.302H56.0202C53.255 130.302 51.0107 128.063 51.0107 125.293C51.0107 122.522 53.255 120.283 56.0202 120.283H126.153C128.923 120.283 131.162 122.522 131.162 125.293C131.162 128.063 128.923 130.302 126.153 130.302Z" fill="#664500"/>
</svg>
