<svg width="181" height="182" viewBox="0 0 181 182" fill="none" xmlns="http://www.w3.org/2000/svg">
<g opacity="0.3">
<path d="M90.5405 181.011C140.34 181.011 180.711 140.641 180.711 90.841C180.711 41.0414 140.34 0.670898 90.5405 0.670898C40.7409 0.670898 0.370361 41.0414 0.370361 90.841C0.370361 140.641 40.7409 181.011 90.5405 181.011Z" fill="#FFCC4D"/>
<path d="M53.0454 118.998C53.2709 119.894 58.8965 140.934 90.5412 140.934C122.191 140.934 127.812 119.894 128.037 118.998C128.312 117.911 127.822 116.783 126.85 116.222C125.873 115.666 124.651 115.832 123.844 116.608C123.749 116.703 114.056 125.906 90.5412 125.906C67.0268 125.906 57.3285 116.703 57.2384 116.613C56.7575 116.137 56.1162 115.887 55.475 115.887C55.0542 115.887 54.6284 115.992 54.2427 116.207C53.2609 116.768 52.7699 117.906 53.0454 118.998V118.998Z" fill="#664500"/>
<path d="M60.4831 85.8298C67.3997 85.8298 73.0067 77.98 73.0067 68.2968C73.0067 58.6135 67.3997 50.7637 60.4831 50.7637C53.5665 50.7637 47.9595 58.6135 47.9595 68.2968C47.9595 77.98 53.5665 85.8298 60.4831 85.8298Z" fill="#664500"/>
<path d="M120.596 85.8298C127.513 85.8298 133.12 77.98 133.12 68.2968C133.12 58.6135 127.513 50.7637 120.596 50.7637C113.68 50.7637 108.073 58.6135 108.073 68.2968C108.073 77.98 113.68 85.8298 120.596 85.8298Z" fill="#664500"/>
</g>
</svg>
