<svg width="181" height="181" viewBox="0 0 181 181" fill="none" xmlns="http://www.w3.org/2000/svg">
<path d="M90.5432 180.397C140.343 180.397 180.713 140.026 180.713 90.2268C180.713 40.4272 140.343 0.0566406 90.5432 0.0566406C40.7436 0.0566406 0.373047 40.4272 0.373047 90.2268C0.373047 140.026 40.7436 180.397 90.5432 180.397Z" fill="#FFCC4D"/>
<path d="M53.0481 118.383C53.2736 119.28 58.8992 140.32 90.5439 140.32C122.194 140.32 127.814 119.28 128.04 118.383C128.315 117.296 127.824 116.169 126.852 115.608C125.876 115.052 124.653 115.217 123.847 115.994C123.752 116.089 114.058 125.291 90.5439 125.291C67.0295 125.291 57.3312 116.089 57.241 115.999C56.7601 115.523 56.1189 115.272 55.4777 115.272C55.0569 115.272 54.6311 115.378 54.2454 115.593C53.2635 116.154 52.7726 117.291 53.0481 118.383V118.383Z" fill="#664500"/>
<path d="M60.4865 85.2156C67.4031 85.2156 73.0102 77.3658 73.0102 67.6825C73.0102 57.9992 67.4031 50.1494 60.4865 50.1494C53.5699 50.1494 47.9629 57.9992 47.9629 67.6825C47.9629 77.3658 53.5699 85.2156 60.4865 85.2156Z" fill="#664500"/>
<path d="M120.599 85.2156C127.516 85.2156 133.123 77.3658 133.123 67.6825C133.123 57.9992 127.516 50.1494 120.599 50.1494C113.682 50.1494 108.075 57.9992 108.075 67.6825C108.075 77.3658 113.682 85.2156 120.599 85.2156Z" fill="#664500"/>
</svg>
