<svg width="182" height="182" viewBox="0 0 182 182" fill="none" xmlns="http://www.w3.org/2000/svg">
<g opacity="0.3">
<path d="M181.172 90.841C181.172 140.64 140.8 181.011 91.0014 181.011C41.2025 181.011 0.831299 140.64 0.831299 90.841C0.831299 41.0421 41.2025 0.670898 91.0014 0.670898C140.8 0.670898 181.172 41.0421 181.172 90.841Z" fill="#FFCC4D"/>
<path d="M91.0029 110.121C76.1449 110.121 66.2813 108.388 54.0883 106.018C51.298 105.487 45.8828 106.018 45.8828 114.224C45.8828 130.63 64.7334 151.138 91.0029 151.138C117.273 151.138 136.123 130.63 136.123 114.224C136.123 106.018 130.703 105.482 127.918 106.018C115.725 108.388 105.866 110.121 91.0029 110.121Z" fill="#664500"/>
<path d="M84.24 17.1075C79.9369 4.92952 66.5867 -1.46255 54.4037 2.83055C47.0097 5.43547 41.7749 11.4017 39.736 18.3799C33.7698 14.2271 25.955 12.8695 18.5711 15.4744C6.39811 19.7725 -0.00396856 33.1327 4.29915 45.3107C4.9103 47.034 5.72184 48.632 6.66361 50.1098C16.4371 68.0536 44.6753 80.6674 61.7726 80.8227C74.9825 69.9672 89.0541 42.4253 85.4072 22.3273C85.2168 20.5841 84.8411 18.8307 84.24 17.1075V17.1075ZM97.7655 17.1075C102.069 4.92952 115.424 -1.46255 127.602 2.83055C134.996 5.43547 140.231 11.4017 142.275 18.3799C148.241 14.2271 156.055 12.8695 163.439 15.4744C175.612 19.7725 182.009 33.1327 177.716 45.3107C177.1 47.034 176.294 48.632 175.347 50.1098C165.573 68.0536 137.335 80.6674 120.233 80.8227C107.023 69.9672 92.9564 42.4253 96.6033 22.3273C96.7887 20.5841 97.1644 18.8307 97.7655 17.1075V17.1075Z" fill="#DD2E44"/>
</g>
</svg>
