<svg width="182" height="181" viewBox="0 0 182 181" fill="none" xmlns="http://www.w3.org/2000/svg">
<path d="M181.172 90.2268C181.172 140.026 140.801 180.397 91.0019 180.397C41.203 180.397 0.831787 140.026 0.831787 90.2268C0.831787 40.4278 41.203 0.0566406 91.0019 0.0566406C140.801 0.0566406 181.172 40.4278 181.172 90.2268Z" fill="#FFCC4D"/>
<path d="M91.0029 109.507C76.1449 109.507 66.2813 107.773 54.0883 105.404C51.298 104.873 45.8828 105.404 45.8828 113.609C45.8828 130.015 64.7334 150.524 91.0029 150.524C117.273 150.524 136.123 130.015 136.123 113.609C136.123 105.404 130.703 104.868 127.918 105.404C115.725 107.773 105.866 109.507 91.0029 109.507Z" fill="#664500"/>
<path d="M84.24 16.4923C79.9369 4.31428 66.5867 -2.07778 54.4037 2.21532C47.0097 4.82024 41.7749 10.7865 39.736 17.7647C33.7698 13.6118 25.955 12.2543 18.5711 14.8592C6.39811 19.1573 -0.00396856 32.5175 4.29915 44.6955C4.9103 46.4187 5.72184 48.0167 6.66361 49.4945C16.4371 67.4384 44.6753 80.0522 61.7726 80.2075C74.9825 69.352 89.0541 41.81 85.4072 21.7121C85.2168 19.9688 84.8411 18.2155 84.24 16.4923V16.4923ZM97.7655 16.4923C102.069 4.31428 115.424 -2.07778 127.602 2.21532C134.996 4.82024 140.231 10.7865 142.275 17.7647C148.241 13.6118 156.055 12.2543 163.439 14.8592C175.612 19.1573 182.009 32.5175 177.716 44.6955C177.1 46.4187 176.294 48.0167 175.347 49.4945C165.573 67.4384 137.335 80.0522 120.233 80.2075C107.023 69.352 92.9564 41.81 96.6033 21.7121C96.7887 19.9688 97.1644 18.2155 97.7655 16.4923V16.4923Z" fill="#DD2E44"/>
</svg>
